<mxfile host="app.diagrams.net" agent="Mozilla/5.0 (Windows NT 10.0; Win64; x64) AppleWebKit/537.36 (KHTML, like Gecko) Chrome/127.0.0.0 Safari/537.36" version="24.7.8">
  <diagram name="Сторінка-1" id="VVyqE6_BLdAGbNSNkJPC">
    <mxGraphModel dx="1050" dy="527" grid="1" gridSize="10" guides="1" tooltips="1" connect="1" arrows="1" fold="1" page="1" pageScale="1" pageWidth="827" pageHeight="1169" math="0" shadow="0">
      <root>
        <mxCell id="0" />
        <mxCell id="1" parent="0" />
        <mxCell id="Plr_9-6lBCZlybrwxbKE-1" value="Dish Type" style="rounded=0;whiteSpace=wrap;html=1;" vertex="1" parent="1">
          <mxGeometry x="160" y="130" width="160" height="30" as="geometry" />
        </mxCell>
        <mxCell id="Plr_9-6lBCZlybrwxbKE-2" value="name: str" style="rounded=0;whiteSpace=wrap;html=1;align=left;" vertex="1" parent="1">
          <mxGeometry x="160" y="160" width="160" height="30" as="geometry" />
        </mxCell>
        <mxCell id="Plr_9-6lBCZlybrwxbKE-3" value="years_of_experience: int&lt;div&gt;&lt;br&gt;&lt;/div&gt;&lt;div&gt;username: str&lt;/div&gt;&lt;div&gt;&lt;br&gt;&lt;/div&gt;&lt;div&gt;email:str&lt;/div&gt;&lt;div&gt;&lt;br&gt;&lt;/div&gt;&lt;div&gt;password: str&lt;br&gt;&lt;br&gt;first_name: str&lt;/div&gt;&lt;div&gt;&lt;br&gt;&lt;/div&gt;&lt;div&gt;last_name: str&lt;/div&gt;" style="rounded=0;whiteSpace=wrap;html=1;align=left;" vertex="1" parent="1">
          <mxGeometry x="160" y="340" width="160" height="180" as="geometry" />
        </mxCell>
        <mxCell id="Plr_9-6lBCZlybrwxbKE-4" value="Dish Type(AbstractUser)" style="rounded=0;whiteSpace=wrap;html=1;" vertex="1" parent="1">
          <mxGeometry x="160" y="310" width="160" height="30" as="geometry" />
        </mxCell>
        <mxCell id="Plr_9-6lBCZlybrwxbKE-5" value="name: str&lt;div&gt;&lt;br&gt;&lt;/div&gt;&lt;div&gt;description: str&lt;/div&gt;&lt;div&gt;&lt;br&gt;&lt;/div&gt;&lt;div&gt;price: decimal&lt;/div&gt;&lt;div&gt;&lt;br&gt;&lt;/div&gt;&lt;div&gt;dish_type: Dish Type&lt;/div&gt;&lt;div&gt;&lt;br&gt;&lt;/div&gt;&lt;div&gt;cooks: List[Cooker]&lt;/div&gt;" style="rounded=0;whiteSpace=wrap;html=1;align=left;" vertex="1" parent="1">
          <mxGeometry x="440" y="190" width="160" height="150" as="geometry" />
        </mxCell>
        <mxCell id="Plr_9-6lBCZlybrwxbKE-6" value="Dish" style="rounded=0;whiteSpace=wrap;html=1;" vertex="1" parent="1">
          <mxGeometry x="440" y="160" width="160" height="30" as="geometry" />
        </mxCell>
        <mxCell id="Plr_9-6lBCZlybrwxbKE-9" value="" style="edgeStyle=elbowEdgeStyle;elbow=horizontal;endArrow=classic;html=1;curved=0;rounded=0;endSize=8;startSize=8;entryX=1;entryY=0.5;entryDx=0;entryDy=0;exitX=0;exitY=0.75;exitDx=0;exitDy=0;" edge="1" parent="1" source="Plr_9-6lBCZlybrwxbKE-5" target="Plr_9-6lBCZlybrwxbKE-2">
          <mxGeometry width="50" height="50" relative="1" as="geometry">
            <mxPoint x="350" y="270" as="sourcePoint" />
            <mxPoint x="400" y="220" as="targetPoint" />
          </mxGeometry>
        </mxCell>
        <mxCell id="Plr_9-6lBCZlybrwxbKE-10" value="n" style="edgeLabel;html=1;align=center;verticalAlign=middle;resizable=0;points=[];" vertex="1" connectable="0" parent="Plr_9-6lBCZlybrwxbKE-9">
          <mxGeometry x="-0.7317" y="-1" relative="1" as="geometry">
            <mxPoint y="-11" as="offset" />
          </mxGeometry>
        </mxCell>
        <mxCell id="Plr_9-6lBCZlybrwxbKE-11" value="1" style="text;html=1;align=center;verticalAlign=middle;resizable=0;points=[];autosize=1;strokeColor=none;fillColor=none;" vertex="1" parent="1">
          <mxGeometry x="320" y="168" width="30" height="30" as="geometry" />
        </mxCell>
        <mxCell id="Plr_9-6lBCZlybrwxbKE-14" value="" style="edgeStyle=none;orthogonalLoop=1;jettySize=auto;html=1;endArrow=classic;startArrow=classic;endSize=8;startSize=8;rounded=0;entryX=0.008;entryY=0.868;entryDx=0;entryDy=0;entryPerimeter=0;exitX=1;exitY=0.5;exitDx=0;exitDy=0;" edge="1" parent="1" source="Plr_9-6lBCZlybrwxbKE-4" target="Plr_9-6lBCZlybrwxbKE-5">
          <mxGeometry width="100" relative="1" as="geometry">
            <mxPoint x="340" y="323" as="sourcePoint" />
            <mxPoint x="420" y="334.5" as="targetPoint" />
            <Array as="points" />
          </mxGeometry>
        </mxCell>
        <mxCell id="Plr_9-6lBCZlybrwxbKE-15" value="0..n" style="text;html=1;align=center;verticalAlign=middle;resizable=0;points=[];autosize=1;strokeColor=none;fillColor=none;" vertex="1" parent="1">
          <mxGeometry x="315" y="330" width="40" height="30" as="geometry" />
        </mxCell>
        <mxCell id="Plr_9-6lBCZlybrwxbKE-16" value="0..n" style="text;html=1;align=center;verticalAlign=middle;resizable=0;points=[];autosize=1;strokeColor=none;fillColor=none;" vertex="1" parent="1">
          <mxGeometry x="400" y="320" width="40" height="30" as="geometry" />
        </mxCell>
      </root>
    </mxGraphModel>
  </diagram>
</mxfile>
